<svg width="1345" height="900" viewBox="0 0 1345 900" fill="none" xmlns="http://www.w3.org/2000/svg">
<rect width="1345" height="900" fill="#402597"/>
<line x1="813.821" y1="95.1777" x2="315.489" y2="799.178" stroke="black" stroke-width="11"/>
<line y1="-5.5" x2="867.26" y2="-5.5" transform="matrix(-0.564324 0.825553 -0.6559 -0.754847 1092.46 92)" stroke="black" stroke-width="11"/>
<line y1="-5.5" x2="614.692" y2="-5.5" transform="matrix(-0.837177 0.546931 -0.361759 -0.932271 1091.25 92)" stroke="black" stroke-width="11"/>
<line y1="-5.5" x2="381.039" y2="-5.5" transform="matrix(-0.957021 0.290018 -0.17715 -0.984184 809.332 92)" stroke="black" stroke-width="11"/>
<line y1="-5.5" x2="261.429" y2="-5.5" transform="matrix(0.504727 0.863279 -0.712666 0.701503 444.648 202.543)" stroke="black" stroke-width="11"/>
<line y1="-5.5" x2="354.6" y2="-5.5" transform="matrix(0.317986 0.948096 -0.870768 0.491695 1091.25 92)" stroke="black" stroke-width="11"/>
<line y1="-5.5" x2="428.037" y2="-5.5" transform="matrix(0.35591 0.93452 -0.841815 0.539767 874.129 408.004)" stroke="black" stroke-width="11"/>
<line y1="-5.5" x2="427.797" y2="-5.5" transform="matrix(-0.414994 0.909824 -0.921824 -0.387609 1204 406.332)" stroke="black" stroke-width="11"/>
<line x1="314.851" y1="806.066" x2="457.523" y2="426.239" stroke="black" stroke-width="11"/>
<line y1="-5.5" x2="346.519" y2="-5.5" transform="matrix(-0.498487 -0.866897 0.71847 -0.695557 467.312 427.309)" stroke="black" stroke-width="11"/>
<line y1="-5.5" x2="335.739" y2="-5.5" transform="matrix(-0.446607 0.89473 -0.765565 -0.643359 289.945 127.812)" stroke="black" stroke-width="11"/>
<line x1="145.015" y1="425.972" x2="316.015" y2="805.742" stroke="black" stroke-width="11"/>
</svg>
