<svg width="1920" height="1080" viewBox="0 0 1920 1080" fill="none" xmlns="http://www.w3.org/2000/svg">
<g clip-path="url(#clip0)">
<rect width="1920" height="1080" fill="#402597"/>
<path d="M50 1079.5H1490V2103.5H50V1079.5Z" fill="white" fill-opacity="0.9"/>
<line y1="-5.5" x2="403.095" y2="-5.5" transform="matrix(0.159478 0.987201 -0.999077 -0.0429483 -62.8457 -119.469)" stroke="black" stroke-width="11"/>
<line y1="-5.5" x2="403.095" y2="-5.5" transform="matrix(0.159478 0.987201 -0.999077 -0.0429483 33.6602 -215.977)" stroke="black" stroke-width="11"/>
<line y1="-5.5" x2="291.706" y2="-5.5" transform="matrix(-0.229308 0.973354 -0.922418 -0.386193 33.248 -215.562)" stroke="black" stroke-width="11"/>
<line y1="-5.5" x2="196.818" y2="-5.5" transform="matrix(0.91988 0.3922 -0.237414 0.971408 61.2441 -39.5547)" stroke="black" stroke-width="11"/>
<line y1="-5.5" x2="197.215" y2="-5.5" transform="matrix(0.330211 0.943907 -0.918528 0.395356 173.146 -152.531)" stroke="black" stroke-width="11"/>
<line y1="-5.5" x2="192.062" y2="-5.5" transform="matrix(-0.407005 -0.913426 0.898641 -0.438686 5.67188 282.645)" stroke="black" stroke-width="11"/>
<line x1="1107.6" y1="262.772" x2="1162.45" y2="656.241" stroke="black" stroke-width="11"/>
<line y1="-5.5" x2="403.095" y2="-5.5" transform="matrix(0.159478 0.987201 -0.999077 -0.0429483 1198.66 167.023)" stroke="black" stroke-width="11"/>
<line y1="-5.5" x2="291.706" y2="-5.5" transform="matrix(-0.229308 0.973354 -0.922418 -0.386193 1198.25 167.438)" stroke="black" stroke-width="11"/>
<line y1="-5.5" x2="182.884" y2="-5.5" transform="matrix(-0.484624 0.874723 -0.826709 -0.56263 1102.15 263.531)" stroke="black" stroke-width="11"/>
<line y1="-5.5" x2="121.079" y2="-5.5" transform="matrix(0.973143 0.230201 -0.0350964 0.999384 1013.53 423.52)" stroke="black" stroke-width="11"/>
<line y1="-5.5" x2="162.814" y2="-5.5" transform="matrix(0.902606 0.430468 -0.290123 0.956989 1198.25 167.438)" stroke="black" stroke-width="11"/>
<line y1="-5.5" x2="196.818" y2="-5.5" transform="matrix(0.91988 0.3922 -0.237414 0.971408 1226.24 343.445)" stroke="black" stroke-width="11"/>
<line y1="-5.5" x2="197.215" y2="-5.5" transform="matrix(0.330211 0.943907 -0.918528 0.395356 1338.15 230.469)" stroke="black" stroke-width="11"/>
<path d="M1161.5 652.5L1087.53 492.552" stroke="black" stroke-width="11"/>
<line y1="-5.5" x2="160.432" y2="-5.5" transform="matrix(-0.971412 -0.237399 0.0433761 -0.999059 1093.81 488.348)" stroke="black" stroke-width="11"/>
<line y1="-5.5" x2="155.014" y2="-5.5" transform="matrix(0.295813 0.955246 -0.993598 0.112972 936.67 452.133)" stroke="black" stroke-width="11"/>
<line y1="-5.5" x2="188.788" y2="-5.5" transform="matrix(0.952933 0.30318 -0.122059 0.992523 982.533 600.215)" stroke="black" stroke-width="11"/>
<path d="M990.648 -164.23L1047 238.004" stroke="black" stroke-width="11"/>
<line y1="-5.5" x2="403.095" y2="-5.5" transform="matrix(0.159478 0.987201 -0.999077 -0.0429483 1081.66 -260.977)" stroke="black" stroke-width="11"/>
<line y1="-5.5" x2="291.706" y2="-5.5" transform="matrix(-0.229308 0.973354 -0.922418 -0.386193 1081.25 -260.562)" stroke="black" stroke-width="11"/>
<line y1="-5.5" x2="182.884" y2="-5.5" transform="matrix(-0.484624 0.874723 -0.826709 -0.56263 985.154 -164.469)" stroke="black" stroke-width="11"/>
<line y1="-5.5" x2="121.079" y2="-5.5" transform="matrix(0.973143 0.230201 -0.0350964 0.999384 896.527 -4.47656)" stroke="black" stroke-width="11"/>
<line y1="-5.5" x2="192.062" y2="-5.5" transform="matrix(-0.407005 -0.913426 0.898641 -0.438686 1053.67 237.645)" stroke="black" stroke-width="11"/>
<line y1="-5.5" x2="160.432" y2="-5.5" transform="matrix(-0.971412 -0.237399 0.0433761 -0.999059 976.807 60.3477)" stroke="black" stroke-width="11"/>
<line y1="-5.5" x2="155.014" y2="-5.5" transform="matrix(0.295813 0.955246 -0.993598 0.112972 819.672 24.1328)" stroke="black" stroke-width="11"/>
<line x1="867.532" y1="167.091" x2="1049" y2="237.876" stroke="black" stroke-width="11"/>
<line x1="1487.6" y1="-147.255" x2="1544.44" y2="246.214" stroke="black" stroke-width="11"/>
<line y1="-5.5" x2="403.095" y2="-5.5" transform="matrix(0.159478 0.987201 -0.999077 -0.0429483 1578.66 -242.977)" stroke="black" stroke-width="11"/>
<line y1="-5.5" x2="291.706" y2="-5.5" transform="matrix(-0.229308 0.973354 -0.922418 -0.386193 1578.25 -242.562)" stroke="black" stroke-width="11"/>
<line y1="-5.5" x2="182.884" y2="-5.5" transform="matrix(-0.484624 0.874723 -0.826709 -0.56263 1482.15 -146.469)" stroke="black" stroke-width="11"/>
<line y1="-5.5" x2="121.079" y2="-5.5" transform="matrix(0.973143 0.230201 -0.0350964 0.999384 1393.53 13.5195)" stroke="black" stroke-width="11"/>
<line y1="-5.5" x2="196.818" y2="-5.5" transform="matrix(0.91988 0.3922 -0.237414 0.971408 1606.24 -66.5547)" stroke="black" stroke-width="11"/>
<line y1="-5.5" x2="197.215" y2="-5.5" transform="matrix(0.330211 0.943907 -0.918528 0.395356 1718.15 -179.531)" stroke="black" stroke-width="11"/>
<path d="M1542.5 241.501L1467.56 82.6241" stroke="black" stroke-width="11"/>
<line y1="-5.5" x2="160.432" y2="-5.5" transform="matrix(-0.971412 -0.237399 0.0433761 -0.999059 1473.81 78.3477)" stroke="black" stroke-width="11"/>
<line y1="-5.5" x2="155.014" y2="-5.5" transform="matrix(0.295813 0.955246 -0.993598 0.112972 1316.67 42.1328)" stroke="black" stroke-width="11"/>
<line y1="-5.5" x2="188.788" y2="-5.5" transform="matrix(0.952933 0.30318 -0.122059 0.992523 1362.53 190.215)" stroke="black" stroke-width="11"/>
<line y1="-5.5" x2="403.095" y2="-5.5" transform="matrix(0.159478 0.987201 -0.999077 -0.0429483 615.154 -291.469)" stroke="black" stroke-width="11"/>
<line y1="-5.5" x2="403.095" y2="-5.5" transform="matrix(0.159478 0.987201 -0.999077 -0.0429483 711.66 -387.977)" stroke="black" stroke-width="11"/>
<line y1="-5.5" x2="192.062" y2="-5.5" transform="matrix(-0.407005 -0.913426 0.898641 -0.438686 683.672 110.645)" stroke="black" stroke-width="11"/>
<line y1="-5.5" x2="155.014" y2="-5.5" transform="matrix(0.295813 0.955246 -0.993598 0.112972 449.67 -102.867)" stroke="black" stroke-width="11"/>
<line y1="-5.5" x2="188.788" y2="-5.5" transform="matrix(0.952933 0.30318 -0.122059 0.992523 495.533 45.2148)" stroke="black" stroke-width="11"/>
<path d="M218.648 134.766L275.5 534" stroke="black" stroke-width="11"/>
<line y1="-5.5" x2="403.095" y2="-5.5" transform="matrix(0.159478 0.987201 -0.999077 -0.0429483 309.66 38.0234)" stroke="black" stroke-width="11"/>
<line y1="-5.5" x2="291.706" y2="-5.5" transform="matrix(-0.229308 0.973354 -0.922418 -0.386193 309.25 38.4375)" stroke="black" stroke-width="11"/>
<line y1="-5.5" x2="182.884" y2="-5.5" transform="matrix(-0.484624 0.874723 -0.826709 -0.56263 213.154 134.531)" stroke="black" stroke-width="11"/>
<line x1="128.271" y1="289.649" x2="243.625" y2="317.041" stroke="black" stroke-width="11"/>
<line y1="-5.5" x2="162.814" y2="-5.5" transform="matrix(0.902606 0.430468 -0.290123 0.956989 309.25 38.4375)" stroke="black" stroke-width="11"/>
<line y1="-5.5" x2="196.818" y2="-5.5" transform="matrix(0.91988 0.3922 -0.237414 0.971408 337.244 214.445)" stroke="black" stroke-width="11"/>
<line y1="-5.5" x2="197.215" y2="-5.5" transform="matrix(0.330211 0.943907 -0.918528 0.395356 449.146 101.469)" stroke="black" stroke-width="11"/>
<line y1="-5.5" x2="192.062" y2="-5.5" transform="matrix(-0.407005 -0.913426 0.898641 -0.438686 281.672 536.645)" stroke="black" stroke-width="11"/>
<line y1="-5.5" x2="160.432" y2="-5.5" transform="matrix(-0.971412 -0.237399 0.0433761 -0.999059 204.807 359.348)" stroke="black" stroke-width="11"/>
<line y1="-5.5" x2="155.014" y2="-5.5" transform="matrix(0.295813 0.955246 -0.993598 0.112972 47.6719 323.133)" stroke="black" stroke-width="11"/>
<path d="M94.2051 465.758L276.002 535.5" stroke="black" stroke-width="11"/>
<line y1="-5.5" x2="403.095" y2="-5.5" transform="matrix(0.159478 0.987201 -0.999077 -0.0429483 710.154 718.531)" stroke="black" stroke-width="11"/>
<line y1="-5.5" x2="403.095" y2="-5.5" transform="matrix(0.159478 0.987201 -0.999077 -0.0429483 806.66 622.023)" stroke="black" stroke-width="11"/>
<line y1="-5.5" x2="291.706" y2="-5.5" transform="matrix(-0.229308 0.973354 -0.922418 -0.386193 806.248 622.438)" stroke="black" stroke-width="11"/>
<line y1="-5.5" x2="182.884" y2="-5.5" transform="matrix(-0.484624 0.874723 -0.826709 -0.56263 710.154 718.531)" stroke="black" stroke-width="11"/>
<line y1="-5.5" x2="121.079" y2="-5.5" transform="matrix(0.973143 0.230201 -0.0350964 0.999384 621.527 878.52)" stroke="black" stroke-width="11"/>
<line y1="-5.5" x2="162.814" y2="-5.5" transform="matrix(0.902606 0.430468 -0.290123 0.956989 806.248 622.438)" stroke="black" stroke-width="11"/>
<line y1="-5.5" x2="196.818" y2="-5.5" transform="matrix(0.91988 0.3922 -0.237414 0.971408 834.244 798.445)" stroke="black" stroke-width="11"/>
<line y1="-5.5" x2="197.215" y2="-5.5" transform="matrix(0.330211 0.943907 -0.918528 0.395356 946.146 685.469)" stroke="black" stroke-width="11"/>
<line y1="-5.5" x2="192.062" y2="-5.5" transform="matrix(-0.407005 -0.913426 0.898641 -0.438686 778.672 1120.64)" stroke="black" stroke-width="11"/>
<line y1="-5.5" x2="160.432" y2="-5.5" transform="matrix(-0.971412 -0.237399 0.0433761 -0.999059 701.807 943.348)" stroke="black" stroke-width="11"/>
<line y1="-5.5" x2="155.014" y2="-5.5" transform="matrix(0.295813 0.955246 -0.993598 0.112972 544.67 907.133)" stroke="black" stroke-width="11"/>
<line y1="-5.5" x2="188.788" y2="-5.5" transform="matrix(0.952933 0.30318 -0.122059 0.992523 590.533 1055.21)" stroke="black" stroke-width="11"/>
<line y1="-5.5" x2="403.095" y2="-5.5" transform="matrix(0.159478 0.987201 -0.999077 -0.0429483 211.154 726.531)" stroke="black" stroke-width="11"/>
<line y1="-5.5" x2="403.095" y2="-5.5" transform="matrix(0.159478 0.987201 -0.999077 -0.0429483 307.66 630.023)" stroke="black" stroke-width="11"/>
<line y1="-5.5" x2="291.706" y2="-5.5" transform="matrix(-0.229308 0.973354 -0.922418 -0.386193 307.248 630.438)" stroke="black" stroke-width="11"/>
<line y1="-5.5" x2="182.884" y2="-5.5" transform="matrix(-0.484624 0.874723 -0.826709 -0.56263 211.154 726.531)" stroke="black" stroke-width="11"/>
<line y1="-5.5" x2="121.079" y2="-5.5" transform="matrix(0.973143 0.230201 -0.0350964 0.999384 122.527 886.52)" stroke="black" stroke-width="11"/>
<line y1="-5.5" x2="162.814" y2="-5.5" transform="matrix(0.902606 0.430468 -0.290123 0.956989 307.248 630.438)" stroke="black" stroke-width="11"/>
<line y1="-5.5" x2="196.818" y2="-5.5" transform="matrix(0.91988 0.3922 -0.237414 0.971408 335.244 806.445)" stroke="black" stroke-width="11"/>
<line y1="-5.5" x2="197.215" y2="-5.5" transform="matrix(0.330211 0.943907 -0.918528 0.395356 447.146 693.469)" stroke="black" stroke-width="11"/>
<line y1="-5.5" x2="192.062" y2="-5.5" transform="matrix(-0.407005 -0.913426 0.898641 -0.438686 279.672 1128.64)" stroke="black" stroke-width="11"/>
<line y1="-5.5" x2="160.432" y2="-5.5" transform="matrix(-0.971412 -0.237399 0.0433761 -0.999059 202.807 951.348)" stroke="black" stroke-width="11"/>
<line y1="-5.5" x2="155.014" y2="-5.5" transform="matrix(0.295813 0.955246 -0.993598 0.112972 45.6699 915.133)" stroke="black" stroke-width="11"/>
<line y1="-5.5" x2="188.788" y2="-5.5" transform="matrix(0.952933 0.30318 -0.122059 0.992523 91.5332 1063.21)" stroke="black" stroke-width="11"/>
<line y1="-5.5" x2="403.095" y2="-5.5" transform="matrix(0.159478 0.987201 -0.999077 -0.0429483 -72.3398 495.023)" stroke="black" stroke-width="11"/>
<line y1="-5.5" x2="162.814" y2="-5.5" transform="matrix(0.902606 0.430468 -0.290123 0.956989 -72.752 495.438)" stroke="black" stroke-width="11"/>
<line y1="-5.5" x2="196.818" y2="-5.5" transform="matrix(0.91988 0.3922 -0.237414 0.971408 -44.7559 671.445)" stroke="black" stroke-width="11"/>
<line y1="-5.5" x2="197.215" y2="-5.5" transform="matrix(0.330211 0.943907 -0.918528 0.395356 67.1465 558.469)" stroke="black" stroke-width="11"/>
<path d="M607.648 258.766L665 658.5" stroke="black" stroke-width="11"/>
<line y1="-5.5" x2="403.095" y2="-5.5" transform="matrix(0.159478 0.987201 -0.999077 -0.0429483 698.66 162.023)" stroke="black" stroke-width="11"/>
<line y1="-5.5" x2="291.706" y2="-5.5" transform="matrix(-0.229308 0.973354 -0.922418 -0.386193 698.248 162.438)" stroke="black" stroke-width="11"/>
<line y1="-5.5" x2="182.884" y2="-5.5" transform="matrix(-0.484624 0.874723 -0.826709 -0.56263 602.154 258.531)" stroke="black" stroke-width="11"/>
<line x1="522.094" y1="418.61" x2="632.448" y2="441.002" stroke="black" stroke-width="11"/>
<line y1="-5.5" x2="162.814" y2="-5.5" transform="matrix(0.902606 0.430468 -0.290123 0.956989 698.248 162.438)" stroke="black" stroke-width="11"/>
<line y1="-5.5" x2="196.818" y2="-5.5" transform="matrix(0.91988 0.3922 -0.237414 0.971408 726.242 338.445)" stroke="black" stroke-width="11"/>
<line y1="-5.5" x2="197.215" y2="-5.5" transform="matrix(0.330211 0.943907 -0.918528 0.395356 838.146 225.465)" stroke="black" stroke-width="11"/>
<line y1="-5.5" x2="192.062" y2="-5.5" transform="matrix(-0.407005 -0.913426 0.898641 -0.438686 670.672 660.645)" stroke="black" stroke-width="11"/>
<line y1="-5.5" x2="160.432" y2="-5.5" transform="matrix(-0.971412 -0.237399 0.0433761 -0.999059 593.805 483.348)" stroke="black" stroke-width="11"/>
<line y1="-5.5" x2="155.014" y2="-5.5" transform="matrix(0.295813 0.955246 -0.993598 0.112972 436.67 447.133)" stroke="black" stroke-width="11"/>
<line x1="484.848" y1="594.824" x2="666.85" y2="659.82" stroke="black" stroke-width="11"/>
<path d="M1632.74 263.691L1690.09 663.426" stroke="black" stroke-width="11"/>
<line y1="-5.5" x2="403.095" y2="-5.5" transform="matrix(0.159478 0.987201 -0.999077 -0.0429483 1723.75 166.949)" stroke="black" stroke-width="11"/>
<line y1="-5.5" x2="291.706" y2="-5.5" transform="matrix(-0.229308 0.973354 -0.922418 -0.386193 1723.34 167.363)" stroke="black" stroke-width="11"/>
<line y1="-5.5" x2="182.884" y2="-5.5" transform="matrix(-0.484624 0.874723 -0.826709 -0.56263 1627.24 263.457)" stroke="black" stroke-width="11"/>
<line x1="1547.18" y1="423.536" x2="1657.54" y2="445.928" stroke="black" stroke-width="11"/>
<line y1="-5.5" x2="162.814" y2="-5.5" transform="matrix(0.902606 0.430468 -0.290123 0.956989 1723.34 167.363)" stroke="black" stroke-width="11"/>
<line y1="-5.5" x2="196.818" y2="-5.5" transform="matrix(0.91988 0.3922 -0.237414 0.971408 1751.33 343.371)" stroke="black" stroke-width="11"/>
<line y1="-5.5" x2="197.215" y2="-5.5" transform="matrix(0.330211 0.943907 -0.918528 0.395356 1863.24 230.391)" stroke="black" stroke-width="11"/>
<line y1="-5.5" x2="192.062" y2="-5.5" transform="matrix(-0.407005 -0.913426 0.898641 -0.438686 1695.76 665.57)" stroke="black" stroke-width="11"/>
<line y1="-5.5" x2="160.432" y2="-5.5" transform="matrix(-0.971412 -0.237399 0.0433761 -0.999059 1618.89 488.273)" stroke="black" stroke-width="11"/>
<line y1="-5.5" x2="155.014" y2="-5.5" transform="matrix(0.295813 0.955246 -0.993598 0.112972 1461.76 452.059)" stroke="black" stroke-width="11"/>
<line x1="1509.94" y1="599.75" x2="1691.94" y2="664.746" stroke="black" stroke-width="11"/>
<path d="M1744.74 710.691L1802.09 1110.43" stroke="black" stroke-width="11"/>
<line y1="-5.5" x2="403.095" y2="-5.5" transform="matrix(0.159478 0.987201 -0.999077 -0.0429483 1835.75 613.949)" stroke="black" stroke-width="11"/>
<line y1="-5.5" x2="291.706" y2="-5.5" transform="matrix(-0.229308 0.973354 -0.922418 -0.386193 1835.34 614.363)" stroke="black" stroke-width="11"/>
<line y1="-5.5" x2="182.884" y2="-5.5" transform="matrix(-0.484624 0.874723 -0.826709 -0.56263 1739.24 710.457)" stroke="black" stroke-width="11"/>
<line x1="1659.18" y1="870.536" x2="1769.54" y2="892.928" stroke="black" stroke-width="11"/>
<line y1="-5.5" x2="162.814" y2="-5.5" transform="matrix(0.902606 0.430468 -0.290123 0.956989 1835.34 614.363)" stroke="black" stroke-width="11"/>
<line y1="-5.5" x2="196.818" y2="-5.5" transform="matrix(0.91988 0.3922 -0.237414 0.971408 1863.33 790.371)" stroke="black" stroke-width="11"/>
<line y1="-5.5" x2="192.062" y2="-5.5" transform="matrix(-0.407005 -0.913426 0.898641 -0.438686 1807.76 1112.57)" stroke="black" stroke-width="11"/>
<line y1="-5.5" x2="160.432" y2="-5.5" transform="matrix(-0.971412 -0.237399 0.0433761 -0.999059 1730.89 935.273)" stroke="black" stroke-width="11"/>
<line y1="-5.5" x2="155.014" y2="-5.5" transform="matrix(0.295813 0.955246 -0.993598 0.112972 1573.76 899.059)" stroke="black" stroke-width="11"/>
<line x1="1621.94" y1="1046.75" x2="1803.94" y2="1111.75" stroke="black" stroke-width="11"/>
<line y1="-5.5" x2="403.095" y2="-5.5" transform="matrix(0.159478 0.987201 -0.999077 -0.0429483 1215.15 711.531)" stroke="black" stroke-width="11"/>
<line y1="-5.5" x2="403.095" y2="-5.5" transform="matrix(0.159478 0.987201 -0.999077 -0.0429483 1311.66 615.023)" stroke="black" stroke-width="11"/>
<line y1="-5.5" x2="291.706" y2="-5.5" transform="matrix(-0.229308 0.973354 -0.922418 -0.386193 1311.25 615.438)" stroke="black" stroke-width="11"/>
<line y1="-5.5" x2="182.884" y2="-5.5" transform="matrix(-0.484624 0.874723 -0.826709 -0.56263 1215.15 711.531)" stroke="black" stroke-width="11"/>
<line y1="-5.5" x2="121.079" y2="-5.5" transform="matrix(0.973143 0.230201 -0.0350964 0.999384 1126.53 871.52)" stroke="black" stroke-width="11"/>
<line y1="-5.5" x2="162.814" y2="-5.5" transform="matrix(0.902606 0.430468 -0.290123 0.956989 1311.25 615.438)" stroke="black" stroke-width="11"/>
<line y1="-5.5" x2="196.818" y2="-5.5" transform="matrix(0.91988 0.3922 -0.237414 0.971408 1339.24 791.445)" stroke="black" stroke-width="11"/>
<line y1="-5.5" x2="197.215" y2="-5.5" transform="matrix(0.330211 0.943907 -0.918528 0.395356 1451.15 678.469)" stroke="black" stroke-width="11"/>
<line y1="-5.5" x2="192.062" y2="-5.5" transform="matrix(-0.407005 -0.913426 0.898641 -0.438686 1283.67 1113.64)" stroke="black" stroke-width="11"/>
<line y1="-5.5" x2="160.432" y2="-5.5" transform="matrix(-0.971412 -0.237399 0.0433761 -0.999059 1206.81 936.348)" stroke="black" stroke-width="11"/>
<line y1="-5.5" x2="155.014" y2="-5.5" transform="matrix(0.295813 0.955246 -0.993598 0.112972 1049.67 900.133)" stroke="black" stroke-width="11"/>
<line y1="-5.5" x2="188.788" y2="-5.5" transform="matrix(0.952933 0.30318 -0.122059 0.992523 1095.53 1048.21)" stroke="black" stroke-width="11"/>
<line y1="-5.5" x2="160.432" y2="-5.5" transform="matrix(-0.971412 -0.237399 0.0433761 -0.999059 1995.89 45.2734)" stroke="black" stroke-width="11"/>
<line y1="-5.5" x2="155.014" y2="-5.5" transform="matrix(0.295813 0.955246 -0.993598 0.112972 1838.76 9.05859)" stroke="black" stroke-width="11"/>
<line x1="1886.94" y1="156.75" x2="2068.94" y2="221.746" stroke="black" stroke-width="11"/>
</g>
<defs>
<clipPath id="clip0">
<rect width="1920" height="1080" fill="white"/>
</clipPath>
</defs>
</svg>
